<?xml version="1.0" encoding="UTF-8"?>
<svg id="Layer_2" data-name="Layer 2" xmlns="http://www.w3.org/2000/svg" viewBox="0 0 703.87 703.87">
  <defs>
    <style>
      .cls-1 {
        fill: #101111;
      }

      .cls-2 {
        fill: none;
        stroke: #fff;
        stroke-miterlimit: 10;
        stroke-width: 9px;
      }
    </style>
  </defs>
  <path class="cls-1" d="M354.06,464.14h-2.13v-12h2.13c47.79,0,92.73-18.61,126.52-52.4,2.25-2.25,4.46-4.58,6.58-6.94l8.92,8.02c-2.26,2.52-4.62,5.01-7.02,7.4-36.06,36.06-84,55.92-135,55.92Z"/>
  <line class="cls-2" x1="538.98" y1="271.09" x2="538.98" y2="271.1"/>
  <path class="cls-1" d="M351.94,464.14c-51.21,0-99.46-19.85-135.85-55.89-36.39-36.04-56.69-84.09-57.18-135.31l-.02-2.02c-.49-51.37,19.15-99.77,55.31-136.27s84.36-56.61,135.74-56.61h2c106.45,0,193.05,86.6,193.05,193.05h-12c0-99.83-81.22-181.05-181.05-181.05h-2c-48.15,0-93.33,18.84-127.22,53.05-33.89,34.21-52.29,79.57-51.83,127.72l.02,2.01c.94,98.87,82.15,179.31,181.03,179.31v12Z"/>
  <rect class="cls-1" x="164.88" y="259.03" width="374.1" height="12"/>
  <rect class="cls-1" x="345.94" y="267.34" width="12" height="352.48"/>
  <path class="cls-1" d="M346.2,269.9v78.94l-.99-14.11c-2.39-33.92-29.24-61-63.14-63.67l-14.8-1.17h78.94Z"/>
  <path class="cls-1" d="M357.67,269.9v78.94s.99-14.11.99-14.11c2.39-33.92,29.24-61,63.14-63.67l14.8-1.17h-78.94Z"/>
  <path class="cls-1" d="M357.67,455.28l43.56-6.37,35.38-13.37c-68.57,20.68-75.11-10.49-77.78-44.4l-1.17-14.8v78.94Z"/>
  <path class="cls-1" d="M347.21,453.64l-43.56-6.37-35.38-13.37c68.57,20.68,75.11-10.49,77.78-44.4l1.17-14.8v78.94Z"/>
  <path class="cls-1" d="M347.21,464.3v78.94l-.99-14.11c-2.39-33.92,1.76-56.7-53.22-75.49l-15.22-5.39,69.44,16.05Z"/>
  <path class="cls-1" d="M357.67,464.3v78.94s.99-14.11.99-14.11c2.39-33.92-1.76-56.7,53.22-75.49l15.22-5.39-69.44,16.05Z"/>
</svg>